<?xml version="1.0" encoding="utf-8"?>
<svg height="90" width="200" xmlns="http://www.w3.org/2000/svg">
  <text style="fill: rgb(128, 128, 128); font-weight: bold; text-transform: uppercase; white-space: pre;" y="20" x="17"><tspan x="27" y="45" style="font-size: 15px; word-spacing: 0px;"><%= humanName %></tspan></text>
  <g transform="matrix(0.144913, 0, 0, 0.144913, 5.874544, 36.887829)">
    <g>
      <line style="stroke: rgb(0, 0, 0); stroke-width: 6px;" x1="3.201" y1="-31.564" x2="109.11" y2="74.345"/>
      <line style="stroke: rgb(0, 0, 0); stroke-width: 6px;" x1="2.968" y1="-31.564" x2="108.877" y2="74.345" transform="matrix(-0.000001, 1, -1, -0.000001, 77.313053, -34.531978)"/>
      <path d="M 44.876 -9.304 L 44.876 -40.714 L 54.656 -40.714 C 59.109 -40.714 62.343 -40.081 64.356 -38.814 C 66.369 -37.547 67.376 -35.531 67.376 -32.764 C 67.376 -30.891 66.936 -29.351 66.056 -28.144 C 65.169 -26.944 63.996 -26.221 62.536 -25.974 L 62.536 -25.764 C 64.529 -25.317 65.966 -24.484 66.846 -23.264 C 67.726 -22.051 68.166 -20.434 68.166 -18.414 C 68.166 -15.547 67.133 -13.314 65.066 -11.714 C 62.993 -10.107 60.183 -9.304 56.636 -9.304 L 44.876 -9.304 Z M 51.536 -35.254 L 51.536 -28.274 L 55.406 -28.274 C 57.213 -28.274 58.519 -28.554 59.326 -29.114 C 60.139 -29.674 60.546 -30.597 60.546 -31.884 C 60.546 -33.084 60.103 -33.947 59.216 -34.474 C 58.336 -34.994 56.946 -35.254 55.046 -35.254 L 51.536 -35.254 Z M 55.666 -22.994 L 51.536 -22.994 L 51.536 -14.804 L 55.876 -14.804 C 57.709 -14.804 59.063 -15.154 59.936 -15.854 C 60.809 -16.561 61.246 -17.637 61.246 -19.084 C 61.246 -21.691 59.386 -22.994 55.666 -22.994 Z" style="fill: rgb(51, 51, 51); white-space: pre;"/>
      <path d="M 48.146 45.982 L 54.656 58.912 L 61.206 45.982 L 68.386 45.982 L 57.966 65.172 L 57.966 77.392 L 51.346 77.392 L 51.346 65.382 L 40.926 45.982 L 48.146 45.982 Z" style="fill: rgb(51, 51, 51); white-space: pre;"/>
      <path d="M 28.398 16.654 C 28.398 21.854 27.111 25.851 24.538 28.644 C 21.958 31.437 18.261 32.834 13.448 32.834 C 8.635 32.834 4.938 31.437 2.358 28.644 C -0.215 25.851 -1.502 21.841 -1.502 16.614 C -1.502 11.387 -0.212 7.394 2.368 4.634 C 4.955 1.881 8.661 0.504 13.488 0.504 C 18.315 0.504 22.008 1.891 24.568 4.664 C 27.121 7.444 28.398 11.441 28.398 16.654 Z M 5.478 16.654 C 5.478 20.167 6.145 22.811 7.478 24.584 C 8.811 26.357 10.801 27.244 13.448 27.244 C 18.761 27.244 21.418 23.714 21.418 16.654 C 21.418 9.581 18.775 6.044 13.488 6.044 C 10.841 6.044 8.845 6.934 7.498 8.714 C 6.151 10.501 5.478 13.147 5.478 16.654 Z" style="fill: rgb(51, 51, 51); white-space: pre;"/>
    </g>
    <path d="M 88.927 33.576 L 88.927 2.166 L 98.707 2.166 C 103.16 2.166 106.394 2.799 108.407 4.066 C 110.42 5.333 111.427 7.349 111.427 10.116 C 111.427 11.989 110.987 13.529 110.107 14.736 C 109.22 15.936 108.047 16.659 106.587 16.906 L 106.587 17.116 C 108.58 17.563 110.017 18.396 110.897 19.616 C 111.777 20.829 112.217 22.446 112.217 24.466 C 112.217 27.333 111.184 29.566 109.117 31.166 C 107.044 32.773 104.234 33.576 100.687 33.576 L 88.927 33.576 Z M 95.587 7.626 L 95.587 14.606 L 99.457 14.606 C 101.264 14.606 102.57 14.326 103.377 13.766 C 104.19 13.206 104.597 12.283 104.597 10.996 C 104.597 9.796 104.154 8.933 103.267 8.406 C 102.387 7.886 100.997 7.626 99.097 7.626 L 95.587 7.626 Z M 99.717 19.886 L 95.587 19.886 L 95.587 28.076 L 99.927 28.076 C 101.76 28.076 103.114 27.726 103.987 27.026 C 104.86 26.319 105.297 25.243 105.297 23.796 C 105.297 21.189 103.437 19.886 99.717 19.886 Z" style="fill: rgb(51, 51, 51); white-space: pre;"/>
  </g>
</svg>
