<?xml version="1.0" encoding="utf-8"?>
<!-- Generator: Adobe Illustrator 23.0.2, SVG Export Plug-In . SVG Version: 6.00 Build 0)  -->
<svg version="1.1" id="Layer_1" xmlns="http://www.w3.org/2000/svg" xmlns:xlink="http://www.w3.org/1999/xlink" x="0px" y="0px"
	 viewBox="0 0 19.62 19.59" style="enable-background:new 0 0 19.62 19.59;" xml:space="preserve">
<style type="text/css">
	.st0{fill:none;stroke:#000000;stroke-width:6;}
	.st1{fill:#333333;}
</style>
<g transform="matrix(0.144913, 0, 0, 0.144913, 5.874544, 36.887829)">
	<g>
		<line class="st0" x1="-25.67" y1="-239.91" x2="80.24" y2="-134"/>
		<line class="st0" x1="80.01" y1="-239.91" x2="-25.9" y2="-134"/>
		<path class="st1" d="M16.01-217.65v-31.41h9.78c4.45,0,7.69,0.63,9.7,1.9c2.01,1.27,3.02,3.28,3.02,6.05
			c0,1.87-0.44,3.41-1.32,4.62c-0.89,1.2-2.06,1.92-3.52,2.17v0.21c1.99,0.45,3.43,1.28,4.31,2.5c0.88,1.21,1.32,2.83,1.32,4.85
			c0,2.87-1.03,5.1-3.1,6.7c-2.07,1.61-4.88,2.41-8.43,2.41H16.01z M22.67-243.6v6.98h3.87c1.81,0,3.11-0.28,3.92-0.84
			c0.81-0.56,1.22-1.48,1.22-2.77c0-1.2-0.44-2.06-1.33-2.59c-0.88-0.52-2.27-0.78-4.17-0.78H22.67z M26.8-231.34h-4.13v8.19h4.34
			c1.83,0,3.19-0.35,4.06-1.05c0.87-0.71,1.31-1.78,1.31-3.23C32.38-230.04,30.52-231.34,26.8-231.34z"/>
		<path class="st1" d="M19.28-162.37l6.51,12.93l6.55-12.93h7.18L29.1-143.18v12.22h-6.62v-12.01l-10.42-19.4H19.28z"/>
		<path class="st1" d="M-0.47-191.69c0,5.2-1.29,9.2-3.86,11.99c-2.58,2.79-6.28,4.19-11.09,4.19s-8.51-1.4-11.09-4.19
			c-2.57-2.79-3.86-6.8-3.86-12.03c0-5.23,1.29-9.22,3.87-11.98c2.59-2.75,6.29-4.13,11.12-4.13s8.52,1.39,11.08,4.16
			C-1.75-200.9-0.47-196.91-0.47-191.69z M-23.39-191.69c0,3.51,0.67,6.16,2,7.93c1.33,1.77,3.32,2.66,5.97,2.66
			c5.31,0,7.97-3.53,7.97-10.59c0-7.07-2.64-10.61-7.93-10.61c-2.65,0-4.64,0.89-5.99,2.67C-22.72-197.85-23.39-195.2-23.39-191.69z
			"/>
	</g>
	<path class="st1" d="M60.06-174.77v-31.41h9.78c4.45,0,7.69,0.63,9.7,1.9s3.02,3.28,3.02,6.05c0,1.87-0.44,3.41-1.32,4.62
		c-0.89,1.2-2.06,1.92-3.52,2.17v0.21c1.99,0.45,3.43,1.28,4.31,2.5c0.88,1.21,1.32,2.83,1.32,4.85c0,2.87-1.03,5.1-3.1,6.7
		c-2.07,1.61-4.88,2.41-8.43,2.41H60.06z M66.72-200.72v6.98h3.87c1.81,0,3.11-0.28,3.92-0.84c0.81-0.56,1.22-1.48,1.22-2.77
		c0-1.2-0.44-2.06-1.33-2.59c-0.88-0.52-2.27-0.78-4.17-0.78H66.72z M70.85-188.46h-4.13v8.19h4.34c1.83,0,3.19-0.35,4.06-1.05
		c0.87-0.71,1.31-1.78,1.31-3.23C76.43-187.16,74.57-188.46,70.85-188.46z"/>
</g>
</svg>
